<svg width="38" height="45" viewBox="0 0 38 45" fill="none" xmlns="http://www.w3.org/2000/svg">
<path d="M18.5853 0.12915C13.6719 0.138339 8.96132 2.09525 5.48003 5.57342C1.99874 9.05159 0.0289811 13.7691 2.20522e-05 18.6978C-0.000900942 18.8449 0.0271586 18.9908 0.0825898 19.1271C0.138021 19.2634 0.219735 19.3873 0.323037 19.4918C0.426338 19.5963 0.549195 19.6793 0.684557 19.736C0.819919 19.7928 0.965121 19.8221 1.11183 19.8224V19.8224C1.40713 19.8225 1.6904 19.7051 1.89964 19.4961C2.10889 19.2871 2.22706 19.0034 2.2283 18.7072C2.22675 14.3573 3.94785 10.1849 7.01298 7.10796C10.0781 4.03102 14.2362 2.30154 18.5725 2.29999C22.9088 2.29843 27.0681 4.02493 30.1354 7.09967C33.2027 10.1744 34.9268 14.3455 34.9284 18.6954C34.9296 18.9917 35.0478 19.2753 35.257 19.4844C35.4663 19.6934 35.7495 19.8107 36.0448 19.8107V19.8107C36.1914 19.8101 36.3365 19.7805 36.4717 19.7237C36.607 19.6668 36.7297 19.5838 36.8329 19.4794C36.9362 19.375 37.0179 19.2511 37.0734 19.115C37.129 18.9789 37.1572 18.8331 37.1566 18.6861C37.1228 13.7624 35.153 9.05108 31.6755 5.57623C28.198 2.10138 23.4937 0.143851 18.5853 0.12915V0.12915Z" fill="white"/>
<path d="M18.587 5.23267C15.058 5.23886 11.6752 6.64793 9.17973 9.1512C6.68428 11.6545 5.27962 15.0479 5.27345 18.588C5.27318 18.64 5.27866 18.6919 5.2898 18.7427C5.30739 19.0312 5.43549 19.3017 5.64732 19.4976C5.85915 19.6936 6.1383 19.7998 6.42639 19.794C6.71448 19.7883 6.9892 19.671 7.1931 19.4668C7.39699 19.2625 7.51427 18.9871 7.52041 18.6981C7.52041 17.7849 7.69972 16.8806 8.04811 16.0369C8.39649 15.1932 8.90713 14.4266 9.55086 13.7808C10.1946 13.1351 10.9588 12.6228 11.7999 12.2733C12.641 11.9239 13.5424 11.744 14.4528 11.744C15.3632 11.744 16.2647 11.9239 17.1057 12.2733C17.9468 12.6228 18.711 13.1351 19.3548 13.7808C19.9985 14.4266 20.5092 15.1932 20.8575 16.0369C21.2059 16.8806 21.3852 17.7849 21.3852 18.6981C21.3783 18.8497 21.4021 19.0011 21.4552 19.1431C21.5082 19.2852 21.5894 19.415 21.6939 19.5247C21.7984 19.6344 21.9239 19.7217 22.0629 19.7813C22.202 19.841 22.3516 19.8717 22.5029 19.8717C22.6541 19.8717 22.8038 19.841 22.9428 19.7813C23.0819 19.7217 23.2074 19.6344 23.3119 19.5247C23.4163 19.415 23.4975 19.2852 23.5506 19.1431C23.6036 19.0011 23.6274 18.8497 23.6205 18.6981C23.6231 17.052 23.1844 15.4354 22.3504 14.0178C21.5164 12.6001 20.3177 11.4335 18.8799 10.6401C17.442 9.8467 15.818 9.45574 14.1778 9.50815C12.5377 9.56056 10.9417 10.0544 9.55715 10.938C11.1195 9.07653 13.2148 7.74209 15.5588 7.1156C17.9028 6.48912 20.3822 6.60089 22.6607 7.43577C24.9393 8.27065 26.9068 9.78825 28.2964 11.7828C29.686 13.7773 30.4306 16.1523 30.4291 18.5857V19.0684C30.4288 19.1664 30.4478 19.2635 30.485 19.3542C30.5222 19.4449 30.5769 19.5273 30.6459 19.5967C30.7149 19.6662 30.7968 19.7213 30.8871 19.7588C30.9774 19.7964 31.0742 19.8158 31.1719 19.8158C31.3693 19.8152 31.5585 19.7362 31.6981 19.5962C31.8377 19.4561 31.9164 19.2664 31.917 19.0684V18.5857C31.9102 15.0431 30.503 11.6478 28.0041 9.14459C25.5052 6.64135 22.1186 5.23452 18.587 5.23267V5.23267Z" fill="white"/>
<path d="M18.5869 44.115C23.4999 44.1058 28.2102 42.1493 31.6914 38.6716C35.1727 35.1939 37.1427 30.4771 37.1723 25.5487C37.1732 25.4016 37.1451 25.2557 37.0897 25.1194C37.0343 24.9832 36.9525 24.8592 36.8492 24.7547C36.7459 24.6502 36.6231 24.5672 36.4877 24.5105C36.3524 24.4537 36.2072 24.4244 36.0605 24.4241V24.4241C35.7652 24.4241 35.4819 24.5414 35.2726 24.7505C35.0634 24.9595 34.9452 25.2431 34.944 25.5394C34.944 29.8893 33.2214 34.061 30.1552 37.1368C27.0889 40.2127 22.9302 41.9407 18.5939 41.9407C14.2576 41.9407 10.0989 40.2127 7.03272 37.1368C3.9665 34.061 2.24391 29.8893 2.24391 25.5394C2.24267 25.2431 2.1245 24.9595 1.91525 24.7505C1.70601 24.5414 1.42274 24.4241 1.12744 24.4241V24.4241C0.980818 24.4247 0.835756 24.4543 0.700533 24.5111C0.565311 24.568 0.442574 24.651 0.339334 24.7554C0.236093 24.8599 0.154371 24.9837 0.0988298 25.1198C0.043289 25.2559 0.0150201 25.4017 0.0156348 25.5487C0.0470124 30.4741 2.01569 35.1878 5.4935 38.6646C8.97131 42.1415 13.6769 44.1003 18.5869 44.115V44.115Z" fill="white"/>
<path d="M18.5839 39.014C22.1128 39.0072 25.4952 37.5979 27.9905 35.0948C30.4858 32.5917 31.8907 29.1986 31.8975 25.6587C31.8968 25.6059 31.8913 25.5534 31.8811 25.5017C31.8636 25.2132 31.7354 24.9426 31.5236 24.7467C31.3118 24.5508 31.0326 24.4445 30.7445 24.4503C30.4565 24.456 30.1817 24.5733 29.9778 24.7775C29.7739 24.9818 29.6567 25.2572 29.6505 25.5462C29.6505 27.3906 28.9202 29.1594 27.6201 30.4635C26.32 31.7677 24.5567 32.5003 22.7181 32.5003C20.8795 32.5003 19.1162 31.7677 17.8162 30.4635C16.5161 29.1594 15.7857 27.3906 15.7857 25.5462C15.7726 25.2577 15.6491 24.9854 15.4409 24.7859C15.2327 24.5865 14.9559 24.4751 14.6681 24.4751C14.3802 24.4751 14.1034 24.5865 13.8952 24.7859C13.6871 24.9854 13.5636 25.2577 13.5504 25.5462C13.547 27.1926 13.9853 28.8097 14.8191 30.2278C15.653 31.6459 16.8518 32.8129 18.2899 33.6065C19.728 34.4 21.3524 34.7909 22.9928 34.7381C24.6333 34.6853 26.2294 34.1907 27.6138 33.3064C26.051 35.1674 23.9556 36.5014 21.6116 37.1277C19.2676 37.7539 16.7883 37.6421 14.5098 36.8073C12.2313 35.9725 10.2637 34.4552 8.8738 32.4609C7.48386 30.4667 6.73875 28.092 6.73946 25.6587V25.169C6.74073 24.973 6.66494 24.7843 6.52854 24.644C6.39213 24.5037 6.20608 24.4229 6.01072 24.4192V24.4192C5.81351 24.4192 5.62435 24.4976 5.48468 24.6373C5.34502 24.7769 5.26624 24.9665 5.26562 25.1643V25.6469C5.26933 29.1898 6.67347 32.5865 9.17012 35.0923C11.6668 37.5981 15.0522 39.0084 18.5839 39.014V39.014Z" fill="white"/>
</svg>
